<mxfile host="app.diagrams.net" modified="2024-05-02T22:44:59.038Z" agent="Mozilla/5.0 (Windows NT 10.0; Win64; x64) AppleWebKit/537.36 (KHTML, like Gecko) Chrome/123.0.0.0 Safari/537.36 OPR/109.0.0.0" etag="m24O1kyFfHdS3rI_-PqC" version="24.0.2" type="github">
  <diagram name="Page-1" id="IXlKD5Xis-MbpnFbSpk0">
    <mxGraphModel dx="2487" dy="875" grid="1" gridSize="10" guides="1" tooltips="1" connect="1" arrows="1" fold="1" page="1" pageScale="1" pageWidth="827" pageHeight="1169" math="0" shadow="0">
      <root>
        <mxCell id="0" />
        <mxCell id="1" parent="0" />
        <mxCell id="D0R8P8FJwQhQO96Lrs1c-10" value="cbi:affects" style="edgeStyle=orthogonalEdgeStyle;rounded=0;orthogonalLoop=1;jettySize=auto;html=1;" edge="1" parent="1" source="D0R8P8FJwQhQO96Lrs1c-2" target="D0R8P8FJwQhQO96Lrs1c-3">
          <mxGeometry relative="1" as="geometry" />
        </mxCell>
        <mxCell id="D0R8P8FJwQhQO96Lrs1c-15" value="rdfs:hasSubclass" style="edgeStyle=orthogonalEdgeStyle;rounded=0;orthogonalLoop=1;jettySize=auto;html=1;entryX=1;entryY=0.5;entryDx=0;entryDy=0;" edge="1" parent="1" source="D0R8P8FJwQhQO96Lrs1c-2" target="D0R8P8FJwQhQO96Lrs1c-14">
          <mxGeometry relative="1" as="geometry" />
        </mxCell>
        <mxCell id="D0R8P8FJwQhQO96Lrs1c-17" value="cbi:isBasedOn" style="edgeStyle=orthogonalEdgeStyle;rounded=0;orthogonalLoop=1;jettySize=auto;html=1;entryX=0.5;entryY=1;entryDx=0;entryDy=0;" edge="1" parent="1" source="D0R8P8FJwQhQO96Lrs1c-2" target="D0R8P8FJwQhQO96Lrs1c-7">
          <mxGeometry relative="1" as="geometry" />
        </mxCell>
        <mxCell id="D0R8P8FJwQhQO96Lrs1c-2" value="cbi:AvailabilityBias" style="rounded=1;arcSize=10;whiteSpace=wrap;html=1;align=center;fillColor=#f0a30a;strokeColor=#BD7000;fontColor=#000000;" vertex="1" parent="1">
          <mxGeometry x="240" y="200" width="120" height="50" as="geometry" />
        </mxCell>
        <mxCell id="D0R8P8FJwQhQO96Lrs1c-3" value="cbi:CognitiveProcess" style="rounded=1;arcSize=10;whiteSpace=wrap;html=1;align=center;fillColor=#f0a30a;strokeColor=#BD7000;fontColor=#000000;" vertex="1" parent="1">
          <mxGeometry x="490" y="200" width="140" height="50" as="geometry" />
        </mxCell>
        <mxCell id="D0R8P8FJwQhQO96Lrs1c-11" value="observation:producedObservation" style="edgeStyle=orthogonalEdgeStyle;rounded=0;orthogonalLoop=1;jettySize=auto;html=1;" edge="1" parent="1" source="D0R8P8FJwQhQO96Lrs1c-4" target="D0R8P8FJwQhQO96Lrs1c-5">
          <mxGeometry relative="1" as="geometry" />
        </mxCell>
        <mxCell id="D0R8P8FJwQhQO96Lrs1c-12" value="cbi:affectedBy" style="edgeStyle=orthogonalEdgeStyle;rounded=0;orthogonalLoop=1;jettySize=auto;html=1;" edge="1" parent="1" source="D0R8P8FJwQhQO96Lrs1c-4" target="D0R8P8FJwQhQO96Lrs1c-2">
          <mxGeometry relative="1" as="geometry" />
        </mxCell>
        <mxCell id="D0R8P8FJwQhQO96Lrs1c-4" value="fs:People" style="rounded=1;arcSize=10;whiteSpace=wrap;html=1;align=center;fillColor=#f0a30a;strokeColor=#BD7000;fontColor=#000000;" vertex="1" parent="1">
          <mxGeometry x="230" y="350" width="140" height="50" as="geometry" />
        </mxCell>
        <mxCell id="D0R8P8FJwQhQO96Lrs1c-13" value="sql:from" style="edgeStyle=orthogonalEdgeStyle;rounded=0;orthogonalLoop=1;jettySize=auto;html=1;" edge="1" parent="1" source="D0R8P8FJwQhQO96Lrs1c-5" target="D0R8P8FJwQhQO96Lrs1c-6">
          <mxGeometry relative="1" as="geometry" />
        </mxCell>
        <mxCell id="D0R8P8FJwQhQO96Lrs1c-5" value="observation:Observation" style="rounded=1;arcSize=10;whiteSpace=wrap;html=1;align=center;fillColor=#f0a30a;strokeColor=#BD7000;fontColor=#000000;" vertex="1" parent="1">
          <mxGeometry x="650" y="350" width="150" height="50" as="geometry" />
        </mxCell>
        <mxCell id="D0R8P8FJwQhQO96Lrs1c-6" value="fs:Event" style="rounded=1;arcSize=10;whiteSpace=wrap;html=1;align=center;fillColor=#f0a30a;strokeColor=#BD7000;fontColor=#000000;" vertex="1" parent="1">
          <mxGeometry x="680" y="100" width="90" height="50" as="geometry" />
        </mxCell>
        <mxCell id="D0R8P8FJwQhQO96Lrs1c-7" value="fs:Information" style="rounded=1;arcSize=10;whiteSpace=wrap;html=1;align=center;fillColor=#f0a30a;strokeColor=#BD7000;fontColor=#000000;" vertex="1" parent="1">
          <mxGeometry x="230" y="70" width="140" height="50" as="geometry" />
        </mxCell>
        <mxCell id="D0R8P8FJwQhQO96Lrs1c-14" value="cbi:CognitiveBias" style="rounded=1;arcSize=10;whiteSpace=wrap;html=1;align=center;fillColor=#f0a30a;strokeColor=#BD7000;fontColor=#000000;" vertex="1" parent="1">
          <mxGeometry x="-40" y="200" width="140" height="50" as="geometry" />
        </mxCell>
      </root>
    </mxGraphModel>
  </diagram>
</mxfile>
